<?xml version="1.0" encoding="UTF-8" standalone="no"?>
<!-- Created with Inkscape (http://www.inkscape.org/) -->

<svg
   xmlns:dc="http://purl.org/dc/elements/1.1/"
   xmlns:cc="http://creativecommons.org/ns#"
   xmlns:rdf="http://www.w3.org/1999/02/22-rdf-syntax-ns#"
   xmlns:svg="http://www.w3.org/2000/svg"
   xmlns="http://www.w3.org/2000/svg"
   xmlns:sodipodi="http://sodipodi.sourceforge.net/DTD/sodipodi-0.dtd"
   xmlns:inkscape="http://www.inkscape.org/namespaces/inkscape"
   width="210mm"
   height="297mm"
   viewBox="0 0 210 297"
   version="1.1"
   id="svg8"
   inkscape:version="0.92.0 r15299"
   sodipodi:docname="iconos portada.svg">
  <defs
     id="defs2">
    <marker
       markerWidth="8.1669126"
       markerHeight="8.1669315"
       refX="4.0834563"
       refY="4.0834657"
       orient="auto"
       id="marker4565">
      <path
         id="path4562"
         d="M 7.7260327,4.0834639 A 3.6425859,3.6425859 0 0 1 4.0834752,7.7260516 3.6425859,3.6425859 0 0 1 0.44087992,4.0834639 3.6425859,3.6425859 0 0 1 4.0834752,0.44087992 3.6425859,3.6425859 0 0 1 7.7260327,4.0834639 Z"
         style="opacity:1;fill:#ffffff;fill-opacity:1;fill-rule:nonzero;stroke:#ffffff;stroke-width:0.88175982;stroke-linecap:round;stroke-linejoin:round;stroke-miterlimit:4;stroke-dasharray:none;stroke-dashoffset:0;stroke-opacity:1;paint-order:normal"
         inkscape:connector-curvature="0" />
    </marker>
  </defs>
  <sodipodi:namedview
     id="base"
     pagecolor="#ffffff"
     bordercolor="#666666"
     borderopacity="1.0"
     inkscape:pageopacity="0.0"
     inkscape:pageshadow="2"
     inkscape:zoom="1.4142136"
     inkscape:cx="379.76741"
     inkscape:cy="678.44688"
     inkscape:document-units="mm"
     inkscape:current-layer="layer1"
     showgrid="false"
     inkscape:window-width="1366"
     inkscape:window-height="745"
     inkscape:window-x="-8"
     inkscape:window-y="-8"
     inkscape:window-maximized="1" />
  <metadata
     id="metadata5">
    <rdf:RDF>
      <cc:Work
         rdf:about="">
        <dc:format>image/svg+xml</dc:format>
        <dc:type
           rdf:resource="http://purl.org/dc/dcmitype/StillImage" />
        <dc:title></dc:title>
      </cc:Work>
    </rdf:RDF>
  </metadata>
  <g
     inkscape:groupmode="layer"
     id="layer2"
     inkscape:label="Capa 2"
     style="display:inline">
    <rect
       style="opacity:1;fill:#000000;fill-opacity:1;fill-rule:nonzero;stroke:#000000;stroke-width:0.17531879;stroke-linecap:round;stroke-linejoin:round;stroke-miterlimit:4;stroke-dasharray:none;stroke-dashoffset:0;stroke-opacity:1;paint-order:normal"
       id="rect4524"
       width="183.95535"
       height="119.54446"
       x="14.119149"
       y="37.300316" />
  </g>
  <g
     inkscape:label="Capa 1"
     inkscape:groupmode="layer"
     id="layer1">
    <g
       id="g4592"
       inkscape:export-xdpi="400"
       inkscape:export-ydpi="400"
       transform="matrix(0.19359223,0,0,0.19359223,210.43796,33.874798)">
      <path
         inkscape:export-ydpi="400"
         inkscape:export-xdpi="400"
         inkscape:connector-curvature="0"
         id="path4522"
         d="m -942.23609,238.2317 v -1.32383 h 6.35438 6.35438 v -2.78004 -2.78004 h 4.10386 4.10388 V 190.63589 149.924 l 2.78004,-2.31855 2.78004,-2.31855 v -7.27505 -7.27506 h 10.72302 10.72301 v -2.64765 -2.64766 h 3.97148 3.97149 v -7.94297 -7.94298 h 1.19144 1.19145 v 7.94298 7.94297 h 2.78004 2.78005 v -3.97149 -3.97148 h 1.32383 1.32382 v 3.97148 3.97149 h 3.83911 3.8391 v 2.64766 2.64765 h 2.64765 2.64766 v 22.57626 22.57625 l 2.64767,2.63772 2.64766,2.63773 v 25.09151 25.09153 h 3.97149 3.97148 v 2.78004 2.78004 h 6.75153 6.75153 v 1.32383 1.32383 h -53.08555 -53.08554 z m 42.30193,-17.54073 0.0718,-5.22913 h -5.43329 -5.43329 v 5.11881 c 0,2.81535 0.0819,5.20067 0.18194,5.30074 0.10007,0.10007 2.51275,0.14972 5.36151,0.11033 l 5.17956,-0.0717 z m 15.94654,0.0662 v -5.29531 h -5.29531 -5.29532 v 5.1188 c 0,2.81535 0.0795,5.19824 0.17651,5.29531 0.0971,0.0971 2.47997,0.17652 5.29532,0.17652 h 5.1188 z m 15.82536,-0.0662 0.0718,-5.22913 h -5.30091 -5.30091 v 5.30091 5.30092 l 5.22912,-0.0718 5.22912,-0.0718 z m -31.7719,-15.88595 0.0718,-5.22913 h -5.43329 -5.43329 v 5.11881 c 0,2.81534 0.0819,5.20068 0.18194,5.30075 0.10007,0.10006 2.51275,0.14971 5.36151,0.11033 l 5.17956,-0.0717 z m 15.94654,0.0662 v -5.29532 h -5.29531 -5.29532 v 5.11881 c 0,2.81535 0.0795,5.19825 0.17651,5.29532 0.0971,0.0971 2.47997,0.17651 5.29532,0.17651 h 5.1188 z m 15.82536,-0.0662 0.0718,-5.22913 h -5.30091 -5.30091 v 5.30092 5.30091 l 5.22912,-0.0718 5.22912,-0.0718 z m -31.7719,-16.2831 -0.0718,-5.22912 h -5.29531 -5.29531 l -0.0718,5.22912 -0.0718,5.22913 h 5.43889 5.43889 z m 15.94654,-0.0718 v -5.3009 l -5.22912,0.0718 -5.22913,0.0718 -0.0718,5.22911 -0.0718,5.22914 h 5.3009 5.30092 z m 15.82536,0.0718 -0.0718,-5.22912 -5.22911,-0.0718 -5.22912,-0.0718 v 5.3009 5.30092 h 5.30091 5.30091 z m -31.7113,-15.68736 v -5.29531 h -5.42771 -5.42769 v 5.29531 5.29531 h 5.42769 5.42771 z m 15.88594,0 v -5.29531 h -5.29531 -5.29532 v 5.29531 5.29531 h 5.29532 5.29531 z m 15.88595,0 v -5.29531 h -5.29532 -5.29531 v 5.29531 5.29531 h 5.29531 5.29532 z m -31.83249,-15.68737 0.0718,-5.22913 h -5.43329 -5.43329 v 5.11882 c 0,2.81533 0.0819,5.20066 0.18194,5.30074 0.10007,0.10006 2.51275,0.14971 5.36151,0.11031 l 5.17956,-0.0716 z m 15.94654,0.0662 v -5.29532 h -5.29531 -5.29532 v 5.1188 c 0,2.81535 0.0795,5.19824 0.17651,5.29532 0.0971,0.0971 2.47997,0.17651 5.29532,0.17651 h 5.1188 z m 15.82536,-0.0662 0.0718,-5.22913 h -5.30091 -5.30091 v 5.30091 5.30092 l 5.22912,-0.0718 5.22912,-0.0718 z m -31.7719,-15.75356 -0.0718,-5.22914 h -5.29531 -5.29531 l -0.0718,5.22914 -0.0718,5.22912 h 5.43889 5.43889 z m 15.94654,-0.0718 v -5.30092 l -5.22912,0.0718 -5.22913,0.0718 -0.0718,5.22913 -0.0718,5.22912 h 5.3009 5.30092 z m 15.82536,0.0718 -0.0718,-5.22914 -5.22911,-0.0718 -5.22912,-0.0718 v 5.30092 5.30091 h 5.30091 5.30091 z"
         style="fill:#fffff2;fill-opacity:1;stroke-width:0.2647658" />
      <circle
         inkscape:export-ydpi="400"
         inkscape:export-xdpi="400"
         r="111.15512"
         cy="174.55553"
         cx="-889.15057"
         id="path4528"
         style="opacity:1;fill:none;fill-opacity:1;fill-rule:nonzero;stroke:#ffffff;stroke-width:4;stroke-linecap:round;stroke-linejoin:round;stroke-miterlimit:4;stroke-dasharray:none;stroke-dashoffset:0;stroke-opacity:1;paint-order:normal" />
      <circle
         inkscape:export-ydpi="400"
         inkscape:export-xdpi="400"
         style="opacity:1;fill:none;fill-opacity:1;fill-rule:nonzero;stroke:#ffffff;stroke-width:2.43694115;stroke-linecap:round;stroke-linejoin:round;stroke-miterlimit:4;stroke-dasharray:0, 26.80635316;stroke-dashoffset:0;stroke-opacity:1;paint-order:normal"
         id="circle4560"
         cx="-889.15057"
         cy="174.55553"
         r="100.69831" />
    </g>
    <g
       id="g4587"
       inkscape:export-xdpi="400"
       inkscape:export-ydpi="400"
       transform="matrix(0.19359223,0,0,0.19359223,221.60703,63.486126)">
      <g
         inkscape:export-ydpi="400"
         inkscape:export-xdpi="400"
         transform="translate(0,26.07708)"
         id="g4539">
        <path
           style="fill:#fffff2;fill-opacity:1;stroke-width:0.12912059"
           d="m -648.45334,212.35546 c -0.0476,-0.0488 -0.0862,-11.70996 -0.0862,-25.91674 v -25.83044 l 4.35732,-4.3945 c 2.39651,-2.41702 7.49521,-7.56119 11.33039,-11.43157 11.78776,-11.89596 19.93631,-20.11748 28.25012,-28.50304 l 7.96864,-8.03743 7.91046,7.97289 c 4.35075,4.38506 13.98125,14.10283 21.40109,21.59507 7.41986,7.49218 15.53925,15.68979 18.04309,18.21686 l 4.55246,4.59465 -0.0322,25.87778 -0.0322,25.87784 -51.78794,0.0305 c -28.48339,0.0183 -51.82677,-0.006 -51.8742,-0.055 z m 85.26246,-21.21984 v -17.17391 l -9.07072,0.0305 -9.07072,0.0305 -0.033,17.14071 -0.033,17.1408 h 9.10347 9.10347 z m -58.23338,-4.4538 v -3.29258 h -3.61537 -3.61539 v 3.29258 3.29256 h 3.61539 3.61537 z m 8.75013,0.0305 -0.0348,-3.26029 -3.64765,-0.0367 -3.64766,-0.0367 v 3.29457 3.29461 h 3.68215 3.68216 z m -8.75013,-8.74791 v -4.00275 h -3.61537 -3.61539 v 4.00275 4.00277 h 3.61539 3.61537 z m 8.74979,0.0305 -0.0341,-3.97043 -3.64766,-0.0367 -3.64765,-0.0367 v 4.00479 4.00476 h 3.68179 3.68181 z m -56.9025,-22.07959 c 2.52543,-2.53885 10.86393,-10.94941 18.53,-18.69016 39.7165,-40.103581 54.31886,-54.811679 54.41772,-54.811679 0.0598,0 8.11664,8.080428 17.90357,17.956499 l 17.79441,17.95657 0.0646,-2.81714 0.0646,-2.81718 8.03776,-0.0305 8.03776,-0.0305 v 11.03951 11.0395 l 7.96908,8.03907 c 4.383,4.4214 10.13399,10.21785 12.77998,12.88102 l 4.81088,4.84201 -11.49681,0.0305 -11.4968,0.0305 -8.67609,-8.74865 c -4.77184,-4.81176 -14.74435,-14.87864 -22.16111,-22.37089 -7.41677,-7.49218 -15.76924,-15.91733 -18.56102,-18.72244 l -5.07599,-5.1003 -5.20342,5.22938 c -7.52891,7.56649 -45.42656,45.83939 -47.46604,47.93602 l -1.727,1.77541 h -11.56886 -11.56884 z"
           id="path4518"
           inkscape:connector-curvature="0" />
      </g>
      <circle
         inkscape:export-ydpi="400"
         inkscape:export-xdpi="400"
         style="opacity:1;fill:none;fill-opacity:1;fill-rule:nonzero;stroke:#ffffff;stroke-width:4;stroke-linecap:round;stroke-linejoin:round;stroke-miterlimit:4;stroke-dasharray:none;stroke-dashoffset:0;stroke-opacity:1;paint-order:normal"
         id="circle4530"
         cx="-596.6676"
         cy="173.49054"
         r="111.15512" />
      <circle
         inkscape:export-ydpi="400"
         inkscape:export-xdpi="400"
         r="100.69831"
         cy="173.49054"
         cx="-596.6676"
         id="circle4574"
         style="opacity:1;fill:none;fill-opacity:1;fill-rule:nonzero;stroke:#ffffff;stroke-width:2.43694115;stroke-linecap:round;stroke-linejoin:round;stroke-miterlimit:4;stroke-dasharray:0, 26.80635316;stroke-dashoffset:0;stroke-opacity:1;paint-order:normal" />
    </g>
    <g
       id="g4581"
       inkscape:export-xdpi="400"
       inkscape:export-ydpi="400"
       transform="matrix(0.19359223,0,0,0.19359223,229.13625,92.891277)">
      <path
         inkscape:export-ydpi="400"
         inkscape:export-xdpi="400"
         inkscape:connector-curvature="0"
         id="path4520"
         d="m -357.88846,209.99252 v -29.0305 h 6.51416 6.51416 v -16.42701 -16.42702 h 6.22864 6.22864 l 0.0731,16.35622 0.0731,16.3562 3.89433,0.0788 3.89434,0.0788 V 161.994 143.00998 h 7.78867 7.78867 v 18.97603 18.97603 h 4.10676 4.10675 v -30.72986 -30.72985 h 10.19608 10.19607 v 30.72985 30.72984 h 5.23965 5.23966 v -25.49019 -25.4902 h 11.75381 11.75381 v 25.49798 25.49796 l 4.03596,-0.0786 4.03594,-0.0786 0.0725,-22.87036 0.0725,-22.87038 h 6.22926 6.22926 v 22.94121 22.94117 h 6.37259 6.37256 v 29.0305 29.03051 h -72.50546 -72.50544 z m 85.75244,8.42593 -0.0771,-5.31045 -5.31046,-0.077 -5.31046,-0.0771 v 5.3875 5.38752 h 5.38751 5.38752 z m -63.09449,-0.21241 v -5.23966 h -5.38126 -5.38126 v 5.23966 5.23965 h 5.38126 5.38126 z m 16.1438,-0.14162 v -5.38127 h -5.38127 -5.38126 v 5.38127 5.38127 h 5.38126 5.38127 z m 15.57733,0 v -5.38127 h -5.38126 -5.38127 v 5.19246 c 0,2.85584 0.085,5.27741 0.18883,5.38126 0.10384,0.10385 2.52541,0.18882 5.38125,0.18882 h 5.19245 z m 16.14379,0 v -5.38127 h -5.38126 -5.38127 v 5.19246 c 0,2.85584 0.085,5.27741 0.18882,5.38126 0.10385,0.10385 2.52542,0.18882 5.38127,0.18882 h 5.19244 z m 31.43791,0.14162 v -5.23966 h -5.38126 -5.38127 v 5.23966 5.23965 h 5.38127 5.38126 z m 15.57735,0 v -5.23966 h -5.38127 -5.38127 v 5.23966 5.23965 h 5.38127 5.38127 z m 16.14379,0 v -5.23966 h -5.38127 -5.38125 v 5.23966 5.23965 h 5.38125 5.38127 z m -47.86492,-15.71896 v -5.38127 h -5.38127 -5.38127 v 5.38127 5.38127 h 5.38127 5.38127 z m -63.15905,-0.28323 v -5.38126 h -5.38126 -5.38126 v 5.38126 5.38127 h 5.38126 5.38126 z m 79.30283,0 v -5.38126 h -5.38126 -5.38127 v 5.38126 5.38127 h 5.38127 5.38126 z m 15.57735,0 v -5.38126 h -5.38127 -5.38127 v 5.38126 5.38127 h 5.38127 5.38127 z m 16.14379,0 v -5.38126 h -5.38127 -5.38125 v 5.38126 5.38127 h 5.38125 5.38127 z m -94.88017,-0.28322 v -5.38126 h -5.38127 -5.38126 v 5.38126 5.38127 h 5.38126 5.38127 z m 15.57733,0 v -5.38126 h -5.38126 -5.38127 v 5.38126 5.38127 h 5.38127 5.38126 z m 16.14379,0 v -5.38126 h -5.38126 -5.38127 v 5.38126 5.38127 h 5.38127 5.38126 z m -37.10239,-65.70806 v -3.68192 h 7.78867 7.78867 v 3.68192 3.68192 h -7.78867 -7.78867 z m 54.78031,-9.3228 c -0.0649,-0.0649 -0.118,-1.75363 -0.118,-3.75272 v -3.63472 h 11.76203 11.76204 l -0.079,3.68874 -0.079,3.68874 -11.56501,0.064 c -6.36074,0.0352 -11.6181,0.0109 -11.683,-0.054 z m -30.98947,-14.04321 v -3.82353 h 10.19609 10.19607 v 3.82353 3.82353 h -10.19607 -10.19609 z"
         style="fill:#fffff2;fill-opacity:1;stroke-width:0.2832244" />
      <circle
         inkscape:export-ydpi="400"
         inkscape:export-xdpi="400"
         r="111.15512"
         cy="173.49054"
         cx="-285.38297"
         id="circle4532"
         style="opacity:1;fill:none;fill-opacity:1;fill-rule:nonzero;stroke:#ffffff;stroke-width:4;stroke-linecap:round;stroke-linejoin:round;stroke-miterlimit:4;stroke-dasharray:none;stroke-dashoffset:0;stroke-opacity:1;paint-order:normal" />
      <circle
         inkscape:export-ydpi="400"
         inkscape:export-xdpi="400"
         transform="rotate(6.4983119)"
         style="opacity:1;fill:none;fill-opacity:1;fill-rule:nonzero;stroke:#ffffff;stroke-width:2.43694115;stroke-linecap:round;stroke-linejoin:round;stroke-miterlimit:4;stroke-dasharray:0, 26.80635316;stroke-dashoffset:0;stroke-opacity:1;paint-order:normal"
         id="circle4576"
         cx="-263.91483"
         cy="204.67381"
         r="100.69831" />
    </g>
  </g>
</svg>
