<?xml version="1.0" encoding="UTF-8" standalone="no"?>
<!-- Created with Inkscape (http://www.inkscape.org/) -->

<svg
   xmlns:dc="http://purl.org/dc/elements/1.1/"
   xmlns:cc="http://creativecommons.org/ns#"
   xmlns:rdf="http://www.w3.org/1999/02/22-rdf-syntax-ns#"
   xmlns:svg="http://www.w3.org/2000/svg"
   xmlns="http://www.w3.org/2000/svg"
   xmlns:sodipodi="http://sodipodi.sourceforge.net/DTD/sodipodi-0.dtd"
   xmlns:inkscape="http://www.inkscape.org/namespaces/inkscape"
   width="210mm"
   height="297mm"
   viewBox="0 0 744.09448819 1052.3622047"
   id="svg2"
   version="1.1"
   inkscape:version="0.91 r13725"
   sodipodi:docname="drawing-1.svg">
  <defs
     id="defs4" />
  <sodipodi:namedview
     id="base"
     pagecolor="#ffffff"
     bordercolor="#666666"
     borderopacity="1.0"
     inkscape:pageopacity="0.0"
     inkscape:pageshadow="2"
     inkscape:zoom="0.35"
     inkscape:cx="-889.28571"
     inkscape:cy="562.85714"
     inkscape:document-units="px"
     inkscape:current-layer="layer1"
     showgrid="false"
     inkscape:window-width="1366"
     inkscape:window-height="745"
     inkscape:window-x="-8"
     inkscape:window-y="-8"
     inkscape:window-maximized="1" />
  <metadata
     id="metadata7">
    <rdf:RDF>
      <cc:Work
         rdf:about="">
        <dc:format>image/svg+xml</dc:format>
        <dc:type
           rdf:resource="http://purl.org/dc/dcmitype/StillImage" />
        <dc:title></dc:title>
      </cc:Work>
    </rdf:RDF>
  </metadata>
  <g
     inkscape:label="Capa 1"
     inkscape:groupmode="layer"
     id="layer1">
    <path
       style="fill:#000000"
       d="m -1237.1144,686.62871 c -0.3692,-0.3692 -0.6713,-104.9963 -0.6713,-232.5046 l 0,-231.83335 105.0021,0 105.0021,0 -0.2521,232.25005 -0.2521,232.25 -104.0787,0.2546 c -57.2433,0.14 -104.3808,-0.048 -104.75,-0.4167 z m 50.1405,-5.0675 0.3119,-3.2295 -20.8119,-0.2705 -20.8118,-0.2704 -0.2705,-20.8119 -0.2705,-20.8118 -3.2295,0.3118 -3.2295,0.3119 -0.2694,22.9783 c -0.1481,12.6381 -0.047,23.5588 0.2256,24.2682 0.389,1.0136 5.5862,1.2323 24.2694,1.0216 l 23.7744,-0.2681 0.3118,-3.2296 z m 50.6882,0.2296 0,-3 -22.75,-0.2688 -22.75,-0.2688 0,2.8521 c 0,1.5687 0.3084,3.1605 0.6853,3.5374 0.3769,0.3769 10.6144,0.5644 22.75,0.4167 l 22.0647,-0.2686 0,-3 z m 53,0 0,-3 -22.75,-0.2688 -22.75,-0.2688 0,2.8521 c 0,1.5687 0.3084,3.1605 0.6853,3.5374 0.3769,0.3769 10.6144,0.5644 22.75,0.4167 l 22.0647,-0.2686 0,-3 z m 53,-21 0,-24 -3.2295,-0.3119 -3.2295,-0.3118 -0.2705,20.8118 -0.2705,20.8119 -20.75,0.2702 -20.75,0.2703 0,2.8131 c 0,1.5472 0.3079,3.121 0.6843,3.4974 0.3764,0.3763 11.2889,0.5638 24.25,0.4166 l 23.5657,-0.2676 0,-24 z m -156.7284,-4.75 -0.2716,-19.25 -19.25,-0.2716 -19.25,-0.2716 0,19.5216 0,19.5216 19.5216,0 19.5216,0 -0.2716,-19.25 z m 50.7284,-0.25 0,-19 -22.75,-0.2688 -22.75,-0.2688 0,19.5376 0,19.5375 22.75,-0.2688 22.75,-0.2687 0,-19 z m 53,0 0,-19 -22.75,-0.2688 -22.75,-0.2688 0,19.5376 0,19.5375 22.75,-0.2688 22.75,-0.2687 0,-19 z m 43.5,-0.022 0,-19.5216 -19.25,0.2716 -19.25,0.2715 -0.2716,19.25 -0.2716,19.25 19.5216,0 19.5216,0 0,-19.5215 z m -189.5,-46.9784 0,-23 -2.3869,-0.3375 c -1.3128,-0.1857 -2.7684,0.2643 -3.2347,1 -1.0231,1.6141 -1.1793,44.2032 -0.1658,45.2167 0.3919,0.3919 1.8544,0.5794 3.25,0.4167 l 2.5374,-0.2959 0,-23 z m 42,0 0,-23 -19,0 -19,0 -0.2701,21.9763 c -0.1486,12.087 -0.046,22.5595 0.2271,23.2721 0.388,1.0111 4.6226,1.236 19.2701,1.0237 l 18.7729,-0.2721 0,-23 z m 51.2687,0.2737 0.2687,-22.7262 -2.2687,-0.557 c -1.2478,-0.3063 -11.4937,-0.4295 -22.7687,-0.2738 l -20.5,0.2833 -0.2685,23.2688 -0.2685,23.2688 22.7685,-0.2688 22.7685,-0.2688 0.2687,-22.7263 z m 53,0 0.2687,-22.7262 -2.2687,-0.557 c -1.2478,-0.3063 -11.4937,-0.4295 -22.7687,-0.2738 l -20.5,0.2833 -0.2685,23.2688 -0.2685,23.2688 22.7685,-0.2688 22.7685,-0.2688 0.2687,-22.7263 z m 42.7313,-0.2737 0,-23 -19,0 -19,0 -0.2701,21.9763 c -0.1486,12.087 -0.046,22.5595 0.2271,23.2721 0.388,1.0111 4.6226,1.236 19.2701,1.0237 l 18.7729,-0.2721 0,-23 z m 10.2687,0.2737 0.2687,-22.7262 -2.4619,-0.6179 c -1.354,-0.3399 -2.9374,-0.324 -3.5187,0.035 -1.2,0.7416 -1.5298,44.7288 -0.3442,45.9143 0.3919,0.392 1.8544,0.5795 3.25,0.4167 l 2.5374,-0.2959 0.2687,-22.7263 z m -198.7687,-51.8371 0,-22.0634 -3.25,0.3134 -3.25,0.3134 -0.2714,20.473 c -0.1493,11.2601 -0.051,21.0476 0.2186,21.75 0.2695,0.7023 1.8541,1.277 3.5214,1.277 l 3.0314,0 0,-22.0634 z m 41.7695,-0.1866 0.2695,-21.75 -19.5195,0 -19.5195,0 0,21.3333 c 0,11.7333 0.3096,21.6429 0.688,22.0214 0.3785,0.3784 9.041,0.5659 19.25,0.4166 l 18.562,-0.2713 0.2695,-21.75 z m 50.7305,0.25 0,-21.5 -22.75,-0.2688 -22.75,-0.2688 0,22.0376 0,22.0375 22.75,-0.2688 22.75,-0.2687 0,-21.5 z m 53,0 0,-21.5 -22.75,-0.2688 -22.75,-0.2688 0,22.0376 0,22.0375 22.75,-0.2688 22.75,-0.2687 0,-21.5 z m 43.2695,-0.25 0.2695,-21.75 -19.5195,0 -19.5195,0 0,21.3333 c 0,11.7333 0.3096,21.6429 0.688,22.0214 0.3785,0.3784 9.041,0.5659 19.25,0.4166 l 18.562,-0.2713 0.2695,-21.75 z m 9.7305,0.25 0,-21.5 -3.25,-0.3134 -3.25,-0.3134 0,21.3967 c 0,11.7682 0.3207,21.7174 0.7126,22.1093 0.3919,0.3919 1.8544,0.5794 3.25,0.4167 l 2.5374,-0.2959 0,-21.5 z m -198.5,-52.0634 0,-23.0634 -3.25,0.3134 -3.25,0.3134 -0.2705,21.4752 c -0.1488,11.8114 -0.05,22.0489 0.2186,22.75 0.269,0.7011 1.8532,1.2748 3.5205,1.2748 l 3.0314,0 0,-23.0634 z m 41.7688,-0.1866 0.2687,-22.75 -19.5187,0 -19.5188,0 0,23.0215 0,23.0216 19.25,-0.2716 19.25,-0.2715 0.2688,-22.75 z m 50.7312,0.25 0,-22.5 -22.75,-0.2688 -22.75,-0.2688 0,23.0376 0,23.0375 22.75,-0.2688 22.75,-0.2687 0,-22.5 z m 53,0 0,-22.5 -22.75,-0.2688 -22.75,-0.2688 0,23.0376 0,23.0375 22.75,-0.2688 22.75,-0.2687 0,-22.5 z m 43.5,0 0,-23 -19.5,0 -19.5,0 0,22.3333 c 0,12.2833 0.3,22.6333 0.6667,23 0.3666,0.3667 9.1416,0.6667 19.5,0.6667 l 18.8333,0 0,-23 z m 9.5,0 0,-22.5 -3.25,-0.3134 -3.25,-0.3134 0,23.1268 0,23.1267 3.25,-0.3134 3.25,-0.3133 0,-22.5 z m -198.5,-51.0634 0,-23.0634 -3.25,0.3134 -3.25,0.3134 -0.2705,21.4752 c -0.1488,11.8114 -0.05,22.0489 0.2186,22.75 0.269,0.7011 1.8532,1.2748 3.5205,1.2748 l 3.0314,0 0,-23.0634 z m 41.7688,0.3134 -0.2688,-22.75 -19.25,-0.2716 -19.25,-0.2716 0,23.0216 0,23.0216 19.5188,0 19.5187,0 -0.2687,-22.75 z m 50.7312,-0.25 0,-22.5 -22.75,-0.2688 -22.75,-0.2688 0,23.0376 0,23.0375 22.75,-0.2688 22.75,-0.2687 0,-22.5 z m 53,0 0,-22.5 -22.75,-0.2688 -22.75,-0.2688 0,23.0376 0,23.0375 22.75,-0.2688 22.75,-0.2687 0,-22.5 z m 43.5,-0.022 0,-23.0216 -19.25,0.2716 -19.25,0.2715 -0.2688,22.75 -0.2688,22.75 19.5188,0 19.5188,0 0,-23.0215 z m 9.5,0.022 0,-22.5 -3.25,-0.3134 -3.25,-0.3134 0,23.1268 0,23.1267 3.25,-0.3134 3.25,-0.3133 0,-22.5 z m -199,-50.50005 0,-23 -3,0 -3,0 -0.2701,21.97634 c -0.1486,12.08701 -0.039,22.57961 0.2443,23.31701 0.3041,0.7926 1.6408,1.211 3.2701,1.0236 l 2.7557,-0.3169 0,-23.00005 z m 42,0 0,-23 -19,0 -19,0 -0.2701,21.97634 c -0.1486,12.08701 -0.046,22.55951 0.2271,23.27211 0.388,1.0111 4.6226,1.236 19.2701,1.0237 l 18.7729,-0.2721 0,-23.00005 z m 51,0 0,-23 -22.5,0 -22.5,0 -0.2701,21.97634 c -0.1486,12.08701 -0.047,22.55811 0.2259,23.26921 0.3895,1.0149 5.2843,1.235 22.7702,1.0237 l 22.274,-0.2692 0,-23.00005 z m 53,0 0,-23 -22.5,0 -22.5,0 -0.2701,21.97634 c -0.1486,12.08701 -0.047,22.55811 0.2259,23.26921 0.3895,1.0149 5.2843,1.235 22.7702,1.0237 l 22.274,-0.2692 0,-23.00005 z m 43,0 0,-23 -19,0 -19,0 -0.2701,21.97634 c -0.1486,12.08701 -0.046,22.55951 0.2271,23.27211 0.388,1.0111 4.6226,1.236 19.2701,1.0237 l 18.7729,-0.2721 0,-23.00005 z m 10,0 0,-23 -3,0 -3,0 -0.2701,21.97634 c -0.1486,12.08701 -0.039,22.57961 0.2443,23.31701 0.3042,0.7926 1.6408,1.211 3.2701,1.0236 l 2.7557,-0.3169 0,-23.00005 z m -198.5,-50.56336 0,-23.06336 -3.25,0.31336 -3.25,0.31336 -0.2705,21.47527 c -0.1488,11.8114 -0.05,22.0489 0.2186,22.75 0.269,0.7011 1.8532,1.27473 3.5205,1.27473 l 3.0314,0 0,-23.06336 z m 41.7688,-0.18664 0.2687,-22.75 -19.5187,0 -19.5188,0 0,23.02159 0,23.0216 19.25,-0.2716 19.25,-0.27159 0.2688,-22.75 z m 50.7312,0.25 0,-22.5 -22.75,-0.26877 -22.75,-0.26878 0,23.03755 0,23.03755 22.75,-0.26878 22.75,-0.26877 0,-22.5 z m 53,0 0,-22.5 -22.75,-0.26877 -22.75,-0.26878 0,23.03755 0,23.03755 22.75,-0.26878 22.75,-0.26877 0,-22.5 z m 43.5,0 0,-23 -19.5,0 -19.5,0 0,22.33333 c 0,12.28334 0.3,22.63334 0.6667,23 0.3666,0.36667 9.1416,0.66667 19.5,0.66667 l 18.8333,0 0,-23 z m 9.5,0 0,-22.5 -3.25,-0.31336 -3.25,-0.31336 0,23.12672 0,23.12672 3.25,-0.31336 3.25,-0.31336 0,-22.5 z m -198.5,-52.06336 0,-22.06336 -3.25,0.31336 -3.25,0.31336 -0.2714,20.473 c -0.1493,11.26015 -0.051,21.04765 0.2186,21.75 0.2695,0.70235 1.8541,1.277 3.5214,1.277 l 3.0314,0 0,-22.06336 z m 41.5,0.0634 0,-21.5 -19.25,-0.27159 -19.25,-0.2716 0,22.04319 0,22.04319 19.25,-0.2716 19.25,-0.27159 0,-21.5 z m 51,0 0,-21.5 -22.75,-0.26877 -22.75,-0.26882 0,22.03755 0,22.03755 22.75,-0.26878 22.75,-0.26877 0,-21.5 z m 53,0 0,-21.5 -22.75,-0.26877 -22.75,-0.26882 0,22.03755 0,22.03755 22.75,-0.26878 22.75,-0.26877 0,-21.5 z m 43.5,-0.0216 0,-22.0216 -19.25,0.2716 -19.25,0.27159 -0.2714,20.473 c -0.1493,11.26015 -0.051,21.04765 0.2186,21.75 0.3738,0.9741 5.0042,1.277 19.5214,1.277 l 19.0314,-3e-5 0,-22.02159 z m 9.5,0.0216 0,-21.5 -3.25,-0.31336 -3.25,-0.31336 0,22.12672 0,22.12672 3.25,-0.31336 3.25,-0.31336 0,-21.5 z m -198.2707,-49.25004 0.2707,-20.25 20.5,-0.5 20.5,-0.5 0.3147,-3.26793 0.3147,-3.26792 -24.3147,0.26792 -24.3147,0.26793 -0.2697,22.47737 c -0.1484,12.36255 -0.05,23.05005 0.2186,23.75 0.2686,0.69995 1.8431,1.27263 3.499,1.27263 l 3.0107,0 0.2707,-20.25 z m 41.5423,1 -0.2716,-19.25 -19.25,-0.27159 -19.25,-0.2716 0,19.5216 0,19.52159 19.5216,0 19.5216,0 -0.2716,-19.25 z m 50.7284,-0.25 0,-19 -22.75,-0.26877 -22.75,-0.26878 0,19.53755 0,19.53755 22.75,-0.26878 22.75,-0.26877 0,-19 z m 53,0 0,-19 -22.75,-0.26877 -22.75,-0.26878 0,19.53755 0,19.53755 22.75,-0.26878 22.75,-0.26877 0,-19 z m 43.5,-0.0216 0,-19.5216 -19.25,0.2716 -19.25,0.27159 -0.2716,19.25 -0.2716,19.25 19.5216,0 19.5216,0 0,-19.52159 z m 9.5,-4.4784 0,-23.5 -24.3147,-0.26793 -24.3147,-0.26792 0.3147,3.26792 0.3147,3.26793 20.5,0.5 20.5,0.5 0.2709,20.3118 0.2709,20.3118 3.2291,-0.3118 3.2291,-0.3118 0,-23.5 z m -106,-20.5 0,-3 -22.75,-0.26877 -22.75,-0.26878 0,3.53755 0,3.53755 22.75,-0.26878 22.75,-0.26877 0,-3 z m 53,0 0,-3 -22.75,-0.26877 -22.75,-0.26878 0,3.53755 0,3.53755 22.75,-0.26878 22.75,-0.26877 0,-3 z m 256.17038,458.83705 c -0.36872,-0.3687 -0.6704,-5.5379 -0.6704,-11.4871 l 0,-10.8167 -26.25,-0.2666 -26.25,-0.2666 0,-119.5 0,-119.5 26.26946,-0.2667 26.26945,-0.2666 -0.26945,-21.73339 -0.26946,-21.73336 -26,-0.5 -26,-0.5 0,-118 0,-118 26.21935,-0.26654 26.21936,-0.26654 0.28064,-12.23346 0.28065,-12.23346 117.25,-0.25413 117.25,-0.25413 0,3.50413 0,3.50413 -38.0389,0 -38.039,0 0.289,8.75 0.2889,8.75 25,0.5 25,0.5 0.2541,118.23282 0.2541,118.23282 -25.2541,0.26718 -25.2541,0.26718 -0.2695,21.73279 -0.2694,21.73276 25.2694,0.2672 25.2695,0.2673 0,119.5 0,119.5 -25,0.5 -25,0.5 -0.2888,8.7408 -0.2888,8.7408 50.7888,0.2592 c 50.0357,0.2553 50.7888,0.2888 50.7888,2.2592 0,1.9884 -0.7512,2.0014 -129.5796,2.2537 -71.26879,0.1395 -129.88129,-0.048 -130.25,-0.4167 z m 151.8296,-13.337 0,-8.5 -25,-0.5 -25,-0.5 0,-119.5 0,-119.5 25,-0.5 25,-0.5 0.2837,-19.50005 c 0.1561,-10.725 0.035,-20.5125 -0.269,-21.75 l -0.5528,-2.25 -24.985,0 -24.9851,0 0.2541,-118.25 0.2541,-118.25 25,-0.5 25,-0.5 0,-8.5 0,-8.5 -73.75,-0.25644 -73.75,-0.25645 0,8.98984 0,8.98985 26.25,0.2666 26.25,0.2666 0.2541,118.23339 0.25409,118.23339 -26.25409,0.26661 -26.2541,0.26661 -0.26946,21.73336 -0.26945,21.73339 26.26945,0.2666 26.26946,0.2667 0,119.5 0,119.5 -26.25,0.2666 -26.25,0.2666 0,8.9898 0,8.9899 73.75,-0.2565 73.75,-0.2564 0,-8.5 z m -177.71502,-26.25 -0.28498,-10.25 -10,0 -10,0 -0.29142,8.9208 c -0.16029,4.9065 -0.0619,9.519 0.21861,10.25 0.37749,0.9837 3.12613,1.3292 10.57641,1.3292 l 10.06637,0 -0.28499,-10.25 z m 25.21502,-0.25 0,-10.5 -10,0 -10,0 0,10.5 0,10.5 10,0 10,0 0,-10.5 z m 25.5,0 0,-10 -10,0 -10,0 -0.28537,10.2853 -0.28538,10.2854 10.28538,-0.2854 10.28537,-0.2853 0,-10 z m 25.28498,0.25 -0.28498,-10.25 -10,0 -10,0 -0.29142,8.9208 c -0.16029,4.9065 -0.0619,9.519 0.21861,10.25 0.37749,0.9837 3.12613,1.3292 10.57641,1.3292 l 10.06637,0 -0.28499,-10.25 z m 76.00002,0 -0.285,-10.25 -8.75,-0.289 -8.75,-0.2889 0,10.5389 0,10.539 9.03498,0 9.03502,0 -0.285,-10.25 z m 25.4188,9.5 c 0.177,-0.4125 0.1727,-5.1375 -0.01,-10.5 l -0.3314,-9.75 -9.9314,0 -9.9314,0 0,10.5 0,10.5 9.941,0 c 5.4675,0 10.0858,-0.3375 10.2628,-0.75 z m 25.2962,-9.75 0,-10 -9,0 -9,0 -0.2914,8.9208 c -0.1603,4.9065 -0.055,9.5366 0.2336,10.2892 0.4013,1.0456 2.5925,1.3001 9.2914,1.0791 l 8.7664,-0.2891 0,-10 z m 25.5,0 0,-10.5 -9,0 -9,0 0,10.5 0,10.5 9,0 9,0 0,-10.5 z m -228.21463,-25.2854 0.28538,-10.2854 -10.28538,0.2854 -10.28537,0.2854 -0.29142,8.9208 c -0.16029,4.9065 -0.0556,9.5354 0.23259,10.2864 0.40419,1.0533 2.75753,1.3001 10.29142,1.0792 l 9.76741,-0.2864 0.28537,-10.2854 z m 24.99961,0.035 0.28499,-10.25 -10.03499,0 -10.03498,0 0,9.8333 c 0,5.4084 0.31569,10.149 0.70153,10.5349 0.38583,0.3858 4.77333,0.5733 9.75,0.4166 l 9.04847,-0.2848 0.28498,-10.25 z m 25.71502,0.25 0,-10 -10.25,-0.285 -10.25,-0.285 0,9.8683 c 0,5.4276 0.31521,10.1836 0.70046,10.5688 0.38525,0.3853 4.99775,0.5728 10.25,0.4167 l 9.54954,-0.2838 0,-10 z m 25.28537,-0.2854 0.28538,-10.2854 -10.28538,0.2854 -10.28537,0.2854 -0.29142,8.9208 c -0.16029,4.9065 -0.0556,9.5354 0.23259,10.2864 0.40419,1.0533 2.75753,1.3001 10.29142,1.0792 l 9.76741,-0.2864 0.28537,-10.2854 z m 75.99963,0.035 0.285,-10.25 -9.03502,0 -9.03498,0 0,9.8333 c 0,5.4084 0.31672,10.1501 0.70382,10.5372 0.38709,0.3871 4.32459,0.5746 8.75,0.4167 l 8.04618,-0.2872 0.285,-10.25 z m 25,0 0.285,-10.25 -10.035,0 -10.035,0 0,9.8333 c 0,5.4084 0.3157,10.1491 0.7015,10.5349 0.3859,0.3858 4.7734,0.5733 9.75,0.4167 l 9.0485,-0.2849 0.285,-10.25 z m 25.715,0.25 0,-10 -9,0 -9,0 -0.2914,8.9209 c -0.1603,4.9064 -0.055,9.5366 0.2336,10.2891 0.4013,1.0457 2.5925,1.3002 9.2914,1.0792 l 8.7664,-0.2892 0,-10 z m 25.285,-0.25 0.285,-10.25 -9.035,0 -9.035,0 0,9.8333 c 0,5.4084 0.3167,10.1501 0.7038,10.5372 0.3871,0.3871 4.3246,0.5746 8.75,0.4167 l 8.0462,-0.2872 0.285,-10.25 z m -227.99747,-26.5 -0.28753,-9.25 -10,0 -10,0 -0.29497,7.9116 c -0.16224,4.3513 -0.0639,8.5138 0.21861,9.25 0.38191,0.9952 3.09521,1.3384 10.5825,1.3384 l 10.06891,0 -0.28752,-9.25 z m 25,0 -0.28753,-9.25 -9.5,0 -9.5,0 -0.28753,9.25 -0.28752,9.25 10.07505,0 10.07505,0 -0.28752,-9.25 z m 25.71247,-0.25 0,-9 -10,0 -10,0 -0.28799,9.2854 -0.288,9.2854 10.288,-0.2854 10.28799,-0.2854 0,-9 z m 25.28753,0.25 -0.28753,-9.25 -10,0 -10,0 -0.29497,7.9116 c -0.16224,4.3513 -0.0639,8.5138 0.21861,9.25 0.38191,0.9952 3.09521,1.3384 10.5825,1.3384 l 10.06891,0 -0.28752,-9.25 z m 75.99997,0 -0.2875,-9.25 -8.5,0 -8.5,0 -0.28753,9.25 -0.28752,9.25 9.07505,0 9.0751,0 -0.2876,-9.25 z m 25,0 -0.2875,-9.25 -9.5,0 -9.5,0 -0.2875,9.25 -0.2876,9.25 10.0751,0 10.0751,0 -0.2876,-9.25 z m 25.7125,-0.25 0,-9 -9,0 -9,0 -0.295,7.9116 c -0.1622,4.3513 -0.057,8.5315 0.2337,9.2891 0.4056,1.057 2.5687,1.3103 9.2949,1.0884 l 8.7664,-0.2891 0,-9 z m 25.2875,0.25 -0.2875,-9.25 -8.5,0 -8.5,0 -0.2875,9.25 -0.2876,9.25 9.0751,0 9.0751,0 -0.2876,-9.25 z m -228.00213,-26.5354 0.28538,-10.2854 -10.28538,0.2854 -10.28537,0.2854 -0.29142,8.9208 c -0.16029,4.9065 -0.0556,9.5354 0.23259,10.2864 0.40419,1.0533 2.75753,1.3001 10.29142,1.0792 l 9.76741,-0.2864 0.28537,-10.2854 z m 24.99961,0.035 0.28499,-10.25 -10.03499,0 -10.03498,0 0,9.8333 c 0,5.4084 0.31569,10.149 0.70153,10.5349 0.38583,0.3858 4.77333,0.5733 9.75,0.4166 l 9.04847,-0.2848 0.28498,-10.25 z m 25.71502,0.25 0,-10 -10.25,-0.285 -10.25,-0.285 0,9.8683 c 0,5.4276 0.31521,10.1836 0.70046,10.5688 0.38525,0.3853 4.99775,0.5728 10.25,0.4167 l 9.54954,-0.2838 0,-10 z m 25.28537,-0.2854 0.28538,-10.2854 -10.28538,0.2854 -10.28537,0.2854 -0.29142,8.9208 c -0.16029,4.9065 -0.0556,9.5354 0.23259,10.2864 0.40419,1.0533 2.75753,1.3001 10.29142,1.0792 l 9.76741,-0.2864 0.28537,-10.2854 z m 75.99963,0.035 0.285,-10.25 -9.03502,0 -9.03498,0 0,9.8333 c 0,5.4084 0.31672,10.1501 0.70382,10.5372 0.38709,0.3871 4.32459,0.5746 8.75,0.4167 l 8.04618,-0.2872 0.285,-10.25 z m 25.215,0.25 0,-10.5 -10,0 -10,0 0,9.8333 c 0,5.4084 0.3,10.1334 0.6667,10.5 0.3666,0.3667 4.8666,0.6667 10,0.6667 l 9.3333,0 0,-10.5 z m 25.5,0 0,-10 -9,0 -9,0 -0.2914,8.9209 c -0.1603,4.9064 -0.055,9.5366 0.2336,10.2891 0.4013,1.0457 2.5925,1.3002 9.2914,1.0792 l 8.7664,-0.2892 0,-10 z m 25.285,-0.25 0.285,-10.25 -9.035,0 -9.035,0 0,9.8333 c 0,5.4084 0.3167,10.1501 0.7038,10.5372 0.3871,0.3871 4.3246,0.5746 8.75,0.4167 l 8.0462,-0.2872 0.285,-10.25 z m -227.785,-24.285 0,-9.035 -10.25,0.285 -10.25,0.285 -0.28893,8.75 -0.28894,8.75 10.53894,0 10.53893,0 0,-9.035 z m 25,0.035 0,-9 -10,0 -10,0 0,9 0,9 10,0 10,0 0,-9 z m 25.78893,0.25 -0.28893,-8.75 -10.25,-0.285 -10.25,-0.285 0,9.035 0,9.035 10.53893,0 10.53894,0 -0.28894,-8.75 z m 25.21107,-0.285 0,-9.035 -10.25,0.285 -10.25,0.285 -0.29697,7.4064 c -0.16333,4.0735 -0.065,8.011 0.21862,8.75 0.3842,1.0012 3.0717,1.3436 10.54697,1.3436 l 10.03138,0 0,-9.035 z m 76,0.035 0,-9 -9,0 -9,0 0,9 0,9 9,0 9,0 0,-9 z m 25,0 0,-9 -10,0 -10,0 0,9 0,9 10,0 10,0 0,-9 z m 26,-0.038 0,-9.0375 -9.25,0.2875 -9.25,0.2875 -0.297,7.4064 c -0.1633,4.0735 -0.065,8.011 0.2186,8.75 0.379,0.9876 2.9089,1.3436 9.547,1.3436 l 9.0314,0 0,-9.0375 z m 25,0.038 0,-9 -9,0 -9,0 0,9 0,9 9,0 9,0 0,-9 z m -228.21502,-26.25 -0.28498,-10.25 -10,0 -10,0 -0.29142,8.9208 c -0.16029,4.9065 -0.0619,9.519 0.21861,10.25 0.37749,0.9837 3.12613,1.3292 10.57641,1.3292 l 10.06637,0 -0.28499,-10.25 z m 25.21502,-0.25 0,-10.5 -10,0 -10,0 0,10.5 0,10.5 10,0 10,0 0,-10.5 z m 25.5,0 0,-10 -10,0 -10,0 -0.28537,10.2853 -0.28538,10.2854 10.28538,-0.2854 10.28537,-0.2853 0,-10 z m 25.28498,0.25 -0.28498,-10.25 -10,0 -10,0 -0.29142,8.9208 c -0.16029,4.9065 -0.0619,9.519 0.21861,10.25 0.37749,0.9837 3.12613,1.3292 10.57641,1.3292 l 10.06637,0 -0.28499,-10.25 z m 76.00002,0 -0.285,-10.25 -8.75,-0.289 -8.75,-0.2889 0,10.5389 0,10.539 9.03498,0 9.03502,0 -0.285,-10.25 z m 25.215,-0.25 0,-10.5 -10,0 -10,0 0,10.5 0,10.5 10,0 10,0 0,-10.5 z m 25.5,0 0,-10 -9,0 -9,0 -0.2914,8.9208 c -0.1603,4.9065 -0.055,9.5366 0.2336,10.2892 0.4013,1.0456 2.5925,1.3001 9.2914,1.0791 l 8.7664,-0.2891 0,-10 z m 25.5,0 0,-10.5 -9,0 -9,0 0,10.5 0,10.5 9,0 9,0 0,-10.5 z m -228.21463,-25.2854 0.28538,-10.2854 -10.28538,0.2854 -10.28537,0.2854 -0.29142,8.9208 c -0.16029,4.9065 -0.0556,9.5354 0.23259,10.2864 0.40419,1.0533 2.75753,1.3001 10.29142,1.0792 l 9.76741,-0.2864 0.28537,-10.2854 z m 24.99961,0.035 0.28499,-10.25 -10.03499,0 -10.03498,0 0,9.8333 c 0,5.4084 0.31569,10.149 0.70153,10.5349 0.38583,0.3858 4.77333,0.5733 9.75,0.4166 l 9.04847,-0.2848 0.28498,-10.25 z m 25.71502,0.25 0,-10 -10.25,-0.285 -10.25,-0.285 0,9.8683 c 0,5.4276 0.31521,10.1836 0.70046,10.5688 0.38525,0.3853 4.99775,0.5728 10.25,0.4167 l 9.54954,-0.2838 0,-10 z m 25.28537,-0.2854 0.28538,-10.2854 -10.28538,0.2854 -10.28537,0.2854 -0.29142,8.9208 c -0.16029,4.9065 -0.0556,9.5354 0.23259,10.2864 0.40419,1.0533 2.75753,1.3001 10.29142,1.0792 l 9.76741,-0.2864 0.28537,-10.2854 z m 75.99963,0.035 0.285,-10.25 -9.03502,0 -9.03498,0 0,9.8333 c 0,5.4084 0.31672,10.1501 0.70382,10.5372 0.38709,0.3871 4.32459,0.5746 8.75,0.4167 l 8.04618,-0.2872 0.285,-10.25 z m 25,0 0.285,-10.25 -10.035,0 -10.035,0 0,9.8333 c 0,5.4084 0.3157,10.1491 0.7015,10.5349 0.3859,0.3858 4.7734,0.5733 9.75,0.4167 l 9.0485,-0.2849 0.285,-10.25 z m 26.0004,-0.038 0.2854,-10.288 -9.2854,0.288 -9.2854,0.288 -0.2914,8.9209 c -0.1603,4.9064 -0.055,9.5366 0.2336,10.2891 0.4013,1.0456 2.5925,1.3001 9.2914,1.0792 l 8.7664,-0.2892 0.2854,-10.288 z m 24.9996,0.038 0.285,-10.25 -9.035,0 -9.035,0 0,9.8333 c 0,5.4084 0.3167,10.1501 0.7038,10.5372 0.3871,0.3871 4.3246,0.5746 8.75,0.4167 l 8.0462,-0.2872 0.285,-10.25 z m -228.00002,-25.5 -0.28498,-10.25 -10,0 -10,0 -0.29142,8.9208 c -0.16029,4.9065 -0.0619,9.519 0.21861,10.25 0.37749,0.9837 3.12613,1.3292 10.57641,1.3292 l 10.06637,0 -0.28499,-10.25 z m 25,0 -0.28498,-10.25 -9.5,0 -9.5,0 -0.28498,10.25 -0.28499,10.25 10.06997,0 10.06997,0 -0.28499,-10.25 z m 25.71502,-0.25 0,-10 -10,0 -10,0 -0.28537,10.2853 -0.28538,10.2854 10.28538,-0.2854 10.28537,-0.2853 0,-10 z m 25.28498,0.25 -0.28498,-10.25 -10,0 -10,0 -0.29142,8.9208 c -0.16029,4.9065 -0.0619,9.519 0.21861,10.25 0.37749,0.9837 3.12613,1.3292 10.57641,1.3292 l 10.06637,0 -0.28499,-10.25 z m 76.00002,0 -0.285,-10.25 -8.5,0 -8.5,0 -0.28498,10.25 -0.28499,10.25 9.06997,0 9.07,0 -0.285,-10.25 z m 25,0 -0.285,-10.25 -9.5,0 -9.5,0 -0.285,10.25 -0.285,10.25 10.07,0 10.07,0 -0.285,-10.25 z m 26,0 -0.285,-10.25 -9,0 -9,0 -0.2914,8.9208 c -0.1603,4.9065 -0.062,9.519 0.2186,10.25 0.3723,0.9703 2.9579,1.3292 9.5764,1.3292 l 9.0664,0 -0.285,-10.25 z m 25,0 -0.285,-10.25 -8.5,0 -8.5,0 -0.285,10.25 -0.285,10.25 9.07,0 9.07,0 -0.285,-10.25 z m -227.99963,-25.5354 0.28538,-10.2854 -10.28538,0.2854 -10.28537,0.2854 -0.29142,8.9208 c -0.16029,4.9065 -0.0556,9.5354 0.23259,10.2864 0.40419,1.0533 2.75753,1.3001 10.29142,1.0792 l 9.76741,-0.2864 0.28537,-10.2854 z m 25.21463,0.2854 0,-10.5 -10,0 -10,0 0,10.5 0,10.5 10,0 10,0 0,-10.5 z m 25.5,0 0,-10 -10.25,-0.285 -10.25,-0.285 0,9.8683 c 0,5.4276 0.31521,10.1835 0.70046,10.5688 0.38525,0.3852 4.99775,0.5727 10.25,0.4166 l 9.54954,-0.2837 0,-10 z m 25.5,-0.035 0,-10.535 -10.25,0.285 -10.25,0.2849 -0.29142,8.9209 c -0.16029,4.9065 -0.0619,9.519 0.21861,10.25 0.37733,0.9833 3.12024,1.3291 10.54143,1.3291 l 10.03138,10e-5 0,-10.535 z m 76,0.035 0,-10.5 -9,0 -9,0 0,10.5 0,10.5 9,0 9,0 0,-10.5 z m 25.1942,0.75 c 0.1823,-5.3625 0.1866,-10.0875 0.01,-10.5 -0.177,-0.4125 -4.7953,-0.75 -10.2628,-0.75 l -9.941,0 0,10.5 0,10.5 9.9314,0 9.9314,0 0.3314,-9.75 z m 25.3058,-0.75 0,-10 -9,0 -9,0 -0.2914,8.9208 c -0.1603,4.9065 -0.055,9.5366 0.2336,10.2892 0.4013,1.0456 2.5925,1.3001 9.2914,1.0791 l 8.7664,-0.2891 0,-10 z m 25.5,0 0,-10.5 -9,0 -9,0 0,10.5 0,10.5 9,0 9,0 0,-10.5 z m -228.5,-77.00005 0,-9 -10,0 -10,0 -0.29497,7.91161 c -0.16224,4.35138 -0.0576,8.53027 0.23259,9.28642 0.40859,1.06477 2.7303,1.31022 10.29497,1.08839 l 9.76741,-0.28642 0,-9 z m 25.28753,-0.25 0.28752,-9.25 -10.03752,0 -10.03753,0 0,8.83333 c 0,4.85834 0.31569,9.14902 0.70153,9.53486 0.38583,0.38584 4.77333,0.57334 9.75,0.41667 l 9.04847,-0.28486 0.28753,-9.25 z m 25.71247,0.25 0,-9 -10,0 -10,0 -0.29497,7.91161 c -0.16224,4.35138 -0.0576,8.53027 0.23259,9.28642 0.40859,1.06477 2.7303,1.31022 10.29497,1.08839 l 9.76741,-0.28642 0,-9 z m 25,0 0,-9 -10,0 -10,0 -0.29497,7.91161 c -0.16224,4.35138 -0.0576,8.53027 0.23259,9.28642 0.40859,1.06477 2.7303,1.31022 10.29497,1.08839 l 9.76741,-0.28642 0,-9 z m 76.2875,-0.25 0.2876,-9.25 -9.03757,0 -9.03753,0 0,8.83333 c 0,4.85834 0.31672,9.15005 0.70382,9.53715 0.38709,0.3871 4.32459,0.5746 8.75,0.41667 l 8.04618,-0.28715 0.2875,-9.25 z m 25,0 0.2876,-9.25 -10.0376,0 -10.0375,0 0,8.83333 c 0,4.85834 0.3157,9.14902 0.7015,9.53486 0.3859,0.38584 4.7734,0.57334 9.75,0.41667 l 9.0485,-0.28486 0.2875,-9.25 z m 25.7125,0.25 0,-9 -9,0 -9,0 -0.295,7.91161 c -0.1622,4.35138 -0.057,8.53151 0.2337,9.28917 0.4056,1.05698 2.5687,1.31027 9.2949,1.08839 l 8.7664,-0.28917 0,-9 z m 25.2875,-0.25 0.2876,-9.25 -9.0376,0 -9.0375,0 0,8.83333 c 0,4.85834 0.3167,9.15005 0.7038,9.53715 0.3871,0.3871 4.3246,0.5746 8.75,0.41667 l 8.0462,-0.28715 0.2875,-9.25 z m -227.7875,-25.28498 0,-9.03499 -10.25,0.28499 -10.25,0.28498 -0.29697,7.40642 c -0.16333,4.07352 -0.065,8.01102 0.21862,8.75 0.3842,1.00122 3.0717,1.34358 10.54697,1.34358 l 10.03138,0 0,-9.03498 z m 25,0.035 0,-9 -10,0 -10,0 0,9 0,9 10,0 10,0 0,-9 z m 25.5,0 0,-8.5 -10.25,-0.28498 -10.25,-0.28499 0,9.06997 0,9.06997 10.25,-0.28499 10.25,-0.28498 0,-8.5 z m 25.5,-0.035 0,-9.03499 -10.25,0.28499 -10.25,0.28498 -0.29697,7.40642 c -0.16333,4.07352 -0.065,8.01102 0.21862,8.75 0.3842,1.00122 3.0717,1.34358 10.54697,1.34358 l 10.03138,0 0,-9.03498 z m 76,0.035 0,-9 -9,0 -9,0 0,9 0,9 9,0 9,0 0,-9 z m 25,0 0,-9 -10,0 -10,0 0,9 0,9 10,0 10,0 0,-9 z m 26,-0.0375 0,-9.03752 -9.25,0.28752 -9.25,0.28753 -0.297,7.40642 c -0.1633,4.07352 -0.065,8.01102 0.2186,8.75 0.379,0.98754 2.9089,1.34358 9.547,1.34358 l 9.0314,0 0,-9.03753 z m 25,0.0375 0,-9 -9,0 -9,0 0,9 0,9 9,0 9,0 0,-9 z m -228.5,-25.5 0,-9 -10,0 -10,0 -0.29497,7.91161 c -0.16224,4.35138 -0.0576,8.53027 0.23259,9.28642 0.40859,1.06477 2.7303,1.31022 10.29497,1.08839 l 9.76741,-0.28644 0,-9 z m 25.28753,0.25 -0.28753,-9.25 -9.5,0 -9.5,0 -0.28753,9.25 -0.28752,9.25 10.07505,0 10.07505,0 -0.28752,-9.25 z m 25.71247,-0.25002 0,-9 -10,0 -10,0 -0.29497,7.91161 c -0.16224,4.35138 -0.0576,8.53027 0.23259,9.28642 0.40859,1.06477 2.7303,1.31022 10.29497,1.08839 l 9.76741,-0.28642 0,-9 z m 25.28753,0.25 -0.28753,-9.25 -10,0 -10,0 -0.29497,7.91161 c -0.16224,4.35138 -0.0639,8.51388 0.21861,9.25 0.38191,0.99523 3.09521,1.33839 10.5825,1.33839 l 10.06891,0 -0.28752,-9.25 z m 75.99997,0 -0.2875,-9.25 -8.5,0 -8.5,0 -0.28753,9.25 -0.28752,9.25 9.07505,0 9.0751,0 -0.2876,-9.25 z m 25,0 -0.2875,-9.25 -9.5,0 -9.5,0 -0.2875,9.25 -0.2876,9.25 10.0751,0 10.0751,0 -0.2876,-9.25 z m 25.7125,-0.25 0,-9 -9,0 -9,0 -0.295,7.91161 c -0.1622,4.35138 -0.057,8.53151 0.2337,9.28917 0.4056,1.05698 2.5687,1.31027 9.2949,1.08839 l 8.7664,-0.28917 0,-9 z m 25.2875,0.25 -0.2875,-9.25 -8.5,0 -8.5,0 -0.2875,9.25 -0.2876,9.25 9.0751,0 9.0751,0 -0.2876,-9.25 z m -228.2875,-25.25 0,-9 -10,0 -10,0 -0.29497,7.91161 c -0.16224,4.35138 -0.0576,8.53027 0.23259,9.28642 0.40859,1.06477 2.7303,1.31022 10.29497,1.08839 l 9.76741,-0.28642 0,-9 z m 25.28753,-0.25 0.28752,-9.25 -10.03752,0 -10.03753,0 0,8.83333 c 0,4.85834 0.31569,9.14902 0.70153,9.53486 0.38583,0.38584 4.77333,0.57334 9.75,0.41667 l 9.04847,-0.28486 0.28753,-9.25 z m 25.71247,0.25 0,-9 -10,0 -10,0 -0.29497,7.91161 c -0.16224,4.35138 -0.0576,8.53027 0.23259,9.28642 0.40859,1.06477 2.7303,1.31022 10.29497,1.08839 l 9.76741,-0.28642 0,-9 z m 25.28799,-0.2854 0.288,-9.28541 -10.288,0.28541 -10.28799,0.2854 -0.29497,7.91161 c -0.16224,4.35138 -0.0576,8.53027 0.23259,9.28642 0.40859,1.06477 2.7303,1.31022 10.29497,1.08839 l 9.76741,-0.28642 0.28799,-9.2854 z m 75.99951,0.0354 0.2876,-9.25 -9.03757,0 -9.03753,0 0,8.83333 c 0,4.85834 0.31672,9.15005 0.70382,9.53715 0.38709,0.3871 4.32459,0.5746 8.75,0.41667 l 8.04618,-0.28715 0.2875,-9.25 z m 25,0 0.2876,-9.25 -10.0376,0 -10.0375,0 0,8.83333 c 0,4.85834 0.3157,9.14902 0.7015,9.53486 0.3859,0.38584 4.7734,0.57334 9.75,0.41667 l 9.0485,-0.28486 0.2875,-9.25 z m 25.7125,0.25 0,-9 -9,0 -9,0 -0.295,7.91161 c -0.1622,4.35138 -0.057,8.53151 0.2337,9.28917 0.4056,1.05698 2.5687,1.31027 9.2949,1.08839 l 8.7664,-0.28917 0,-9 z m 25.2875,-0.25 0.2876,-9.25 -9.0376,0 -9.0375,0 0,8.83333 c 0,4.85834 0.3167,9.15005 0.7038,9.53715 0.3871,0.3871 4.3246,0.5746 8.75,0.41667 l 8.0462,-0.28715 0.2875,-9.25 z m -228.00252,-26.5 -0.28498,-10.25 -10,0 -10,0 -0.29142,8.92086 c -0.16029,4.90647 -0.0619,9.51897 0.21861,10.25 0.37749,0.98372 3.12613,1.32914 10.57641,1.32914 l 10.06637,0 -0.28499,-10.25 z m 25,0 -0.28498,-10.25 -9.5,0 -9.5,0 -0.28498,10.25 -0.28499,10.25 10.06997,0 10.06997,0 -0.28499,-10.25 z m 25.71502,-0.25 0,-10 -10,0 -10,0 -0.28537,10.28537 -0.28538,10.28538 10.28538,-0.28538 10.28537,-0.28537 0,-10 z m 25.28498,0.25 -0.28498,-10.25 -10,0 -10,0 -0.29142,8.92086 c -0.16029,4.90647 -0.0619,9.51897 0.21861,10.25 0.37749,0.98372 3.12613,1.32914 10.57641,1.32914 l 10.06637,0 -0.28499,-10.25 z m 76.00002,0 -0.285,-10.25 -8.5,0 -8.5,0 -0.28498,10.25 -0.28499,10.25 9.06997,0 9.07,0 -0.285,-10.25 z m 25,0 -0.285,-10.25 -9.5,0 -9.5,0 -0.285,10.25 -0.285,10.25 10.07,0 10.07,0 -0.285,-10.25 z m 26,0 -0.285,-10.25 -9,0 -9,0 -0.2914,8.92086 c -0.1603,4.90647 -0.062,9.51897 0.2186,10.25 0.3723,0.97028 2.9579,1.32914 9.5764,1.32914 l 9.0664,0 -0.285,-10.25 z m 25,0 -0.285,-10.25 -8.5,0 -8.5,0 -0.285,10.25 -0.285,10.25 9.07,0 9.07,0 -0.285,-10.25 z m -228.285,-25.25 0,-10 -10,0 -10,0 -0.29142,8.92086 c -0.16029,4.90647 -0.0556,9.53536 0.23259,10.28642 0.40419,1.0533 2.75753,1.30007 10.29142,1.07914 l 9.76741,-0.28642 0,-10 z m 25.5,0 0,-10.5 -10,0 -10,0 0,10.5 0,10.5 10,0 10,0 0,-10.5 z m 25.5,0 0,-10 -10,0 -10,0 -0.29142,8.92086 c -0.16029,4.90647 -0.0556,9.53536 0.23259,10.28642 0.40419,1.0533 2.75753,1.30007 10.29142,1.07914 l 9.76741,-0.28642 0,-10 z m 25,0 0,-10 -10,0 -10,0 -0.29142,8.92086 c -0.16029,4.90647 -0.0556,9.53536 0.23259,10.28642 0.40419,1.0533 2.75753,1.30007 10.29142,1.07914 l 9.76741,-0.28642 0,-10 z m 76.5,0 0,-10.5 -9,0 -9,0 0,10.5 0,10.5 9,0 9,0 0,-10.5 z m 25,0 0,-10.5 -10,0 -10,0 0,10.5 0,10.5 10,0 10,0 0,-10.5 z m 25.5,0 0,-10 -9,0 -9,0 -0.2914,8.92086 c -0.1603,4.90647 -0.055,9.5366 0.2336,10.28917 0.4013,1.04561 2.5925,1.30011 9.2914,1.07914 l 8.7664,-0.28917 0,-10 z m 25.5,0 0,-10.5 -9,0 -9,0 0,10.5 0,10.5 9,0 9,0 0,-10.5 z m -228.21463,-25.28537 0.28538,-10.28537 -10.28538,0.28537 -10.28537,0.28537 -0.29142,8.92086 c -0.16029,4.90647 -0.0556,9.53536 0.23259,10.28642 0.40419,1.0533 2.75753,1.30007 10.29142,1.07914 l 9.76741,-0.28642 0.28537,-10.28537 z m 24.99961,0.0354 0.28499,-10.25 -10.03499,0 -10.03498,0 0,9.83333 c 0,5.40834 0.31569,10.14902 0.70153,10.53486 0.38583,0.38584 4.77333,0.57334 9.75,0.41667 l 9.04847,-0.28486 0.28498,-10.25 z m 25.71502,0.25 0,-10 -10.25,-0.28498 -10.25,-0.28499 0,9.86832 c 0,5.42757 0.31521,10.18352 0.70046,10.56878 0.38525,0.38525 4.99775,0.57275 10.25,0.41666 l 9.54954,-0.28379 0,-10 z m 25.28537,-0.28537 0.28538,-10.28538 -10.28538,0.28538 -10.28537,0.28537 -0.29142,8.92086 c -0.16029,4.90647 -0.0556,9.53536 0.23259,10.28642 0.40419,1.0533 2.75753,1.30007 10.29142,1.07914 l 9.76741,-0.28642 0.28537,-10.28537 z m 75.99963,0.0354 0.285,-10.25 -9.03502,0 -9.03498,0 0,9.83333 c 0,5.40834 0.31672,10.15004 0.70382,10.53714 0.38709,0.3871 4.32459,0.5746 8.75,0.41667 l 8.04618,-0.28715 0.285,-10.24999 z m 25,0 0.285,-10.25 -10.035,0 -10.035,0 0,9.83333 c 0,5.40834 0.3157,10.14901 0.7015,10.53485 0.3859,0.38584 4.7734,0.57334 9.75,0.41667 l 9.0485,-0.28486 0.285,-10.24999 z m 26.0004,-0.038 0.2854,-10.288 -9.2854,0.288 -9.2854,0.28799 -0.2914,8.92085 c -0.1603,4.90648 -0.055,9.5366 0.2336,10.28917 0.4013,1.04561 2.5925,1.30011 9.2914,1.07914 l 8.7664,-0.28917 0.2854,-10.28799 z m 24.9996,0.038 0.285,-10.25 -9.035,0 -9.035,0 0,9.83333 c 0,5.40834 0.3167,10.15004 0.7038,10.53714 0.3871,0.3871 4.3246,0.5746 8.75,0.41667 l 8.0462,-0.28715 0.285,-10.24999 z m -228.00002,-25.5 -0.28498,-10.25 -10,0 -10,0 -0.29142,8.92085 c -0.16029,4.90647 -0.0619,9.51897 0.21861,10.25 0.37749,0.98372 3.12613,1.32915 10.57641,1.32915 l 10.06637,0 -0.28499,-10.25 z m 25,0 -0.28498,-10.25 -9.5,0 -9.5,0 -0.28498,10.25 -0.28499,10.25 10.06997,0 10.06997,0 -0.28499,-10.25 z m 25.71502,-0.25 0,-10 -10,0 -10,0 -0.28537,10.28537 -0.28538,10.28537 10.28538,-0.28537 10.28537,-0.28537 0,-10 z m 25.28498,0.25 -0.28498,-10.25 -10,0 -10,0 -0.29142,8.92085 c -0.16029,4.90647 -0.0619,9.51897 0.21861,10.25 0.37749,0.98372 3.12613,1.32915 10.57641,1.32915 l 10.06637,0 -0.28499,-10.25 z m 76.00002,0 -0.285,-10.25 -8.5,0 -8.5,0 -0.28498,10.25 -0.28499,10.25 9.06997,0 9.07,0 -0.285,-10.25 z m 25,0 -0.285,-10.25 -9.5,0 -9.5,0 -0.285,10.25 -0.285,10.25 10.07,0 10.07,0 -0.285,-10.25 z m 26,0 -0.285,-10.25 -9,0 -9,0 -0.2914,8.92085 c -0.1603,4.90647 -0.062,9.51897 0.2186,10.25 0.3723,0.97029 2.9579,1.32915 9.5764,1.32915 l 9.0664,0 -0.285,-10.25 z m 25,0 -0.285,-10.25 -8.5,0 -8.5,0 -0.285,10.25 -0.285,10.25 9.07,0 9.07,0 -0.285,-10.25 z m -228.285,-25.25 0,-10 -10,0 -10,0 -0.29142,8.92085 c -0.16029,4.90647 -0.0556,9.53536 0.23259,10.28643 0.40419,1.0533 2.75753,1.30006 10.29142,1.07914 l 9.76741,-0.28642 0,-10 z m 25.5,0 0,-10.5 -10,0 -10,0 0,10.5 0,10.5 10,0 10,0 0,-10.5 z m 25.5,0 0,-10 -10,0 -10,0 -0.29142,8.92085 c -0.16029,4.90647 -0.0556,9.53536 0.23259,10.28643 0.40419,1.0533 2.75753,1.30006 10.29142,1.07914 l 9.76741,-0.28642 0,-10 z m 25.28537,-0.28538 0.28538,-10.28537 -10.28538,0.28537 -10.28537,0.28538 -0.29142,8.92085 c -0.16029,4.90647 -0.0556,9.53536 0.23259,10.28643 0.40419,1.0533 2.75753,1.30006 10.29142,1.07914 l 9.76741,-0.28642 0.28537,-10.28537 z m 76.21463,0.28538 0,-10.5 -9,0 -9,0 0,10.5 0,10.5 9,0 9,0 0,-10.5 z m 25,0 0,-10.5 -10,0 -10,0 0,10.5 0,10.5 10,0 10,0 0,-10.5 z m 25.5,0 0,-10 -9,0 -9,0 -0.2914,8.92085 c -0.1603,4.90647 -0.055,9.5366 0.2336,10.28917 0.4013,1.04562 2.5925,1.30012 9.2914,1.07915 l 8.7664,-0.28917 0,-10 z m 25.5,0 0,-10.5 -9,0 -9,0 0,10.5 0,10.5 9,0 9,0 0,-10.5 z M -1661.7857,586.79071 c -0.6847,-0.825 -2.2882,-1.5 -3.5634,-1.5 -1.2752,0 -2.5967,-0.45 -2.9366,-1 -0.3399,-0.55 -1.4915,-1 -2.559,-1 -1.0676,0 -1.941,-0.45 -1.941,-1 0,-0.55 -0.8449,-1 -1.8776,-1 -1.0326,0 -2.4377,-0.675 -3.1224,-1.5 -0.6847,-0.825 -1.7677,-1.5 -2.4066,-1.5 -1.4478,0 -11.5934,-10.1745 -11.5934,-11.6264 0,-0.585 -0.9,-1.8781 -2,-2.8736 -1.1,-0.9954 -2,-2.3601 -2,-3.0325 0,-0.6724 -0.675,-1.7828 -1.5,-2.4675 -0.825,-0.6846 -1.5,-2.5132 -1.5,-4.0634 0,-1.5502 -0.45,-3.0966 -1,-3.4366 -1.3818,-0.854 -1.3818,-217.14595 0,-217.99996 0.55,-0.33992 1,-1.9556 1,-3.5904 0,-1.71962 0.6322,-3.21497 1.5,-3.54797 0.825,-0.31659 1.5,-1.35772 1.5,-2.31363 0,-0.95591 0.9,-2.55251 2,-3.548 1.1,-0.99549 2,-2.3181 2,-2.93915 0,-1.44369 10.2031,-11.56085 11.659,-11.56085 0.6029,0 1.6563,-0.675 2.341,-1.5 0.6847,-0.825 2.0898,-1.5 3.1224,-1.5 1.0327,0 1.8776,-0.45 1.8776,-1 0,-0.55 0.8734,-1 1.941,-1 1.0675,0 2.2191,-0.45 2.559,-1 0.3399,-0.55 1.6614,-1 2.9366,-1 1.2752,0 2.8787,-0.675 3.5634,-1.5 1.0923,-1.31611 14.2727,-1.5 107.5155,-1.5 93.5402,0 106.3395,0.17969 106.8461,1.5 0.333,0.8678 1.8284,1.5 3.548,1.5 1.6348,0 3.2505,0.45 3.5904,1 0.3399,0.55 1.4915,1 2.559,1 1.0676,0 1.941,0.45 1.941,1 0,0.55 0.8117,1 1.8038,1 0.9921,0 3.3304,1.575 5.1962,3.5 1.8658,1.925 3.9902,3.5 4.7209,3.5 0.7307,0 1.7222,1.0125 2.2032,2.25 0.481,1.2375 2.2699,3.57169 3.9753,5.18709 1.7053,1.6154 3.1006,3.7529 3.1006,4.75 0,0.9971 0.45,1.81291 1,1.81291 0.55,0 1,0.87344 1,1.94098 0,1.06754 0.45,2.2191 1,2.55902 0.55,0.33992 1,1.89333 1,3.45203 0,1.59661 0.6549,3.08531 1.5,3.4096 1.3203,0.50666 1.5,13.3384 1.5,107.13833 0,93.8 -0.1797,106.6318 -1.5,107.1384 -0.8451,0.3243 -1.5,1.813 -1.5,3.4096 0,1.5587 -0.45,3.1121 -1,3.452 -0.55,0.34 -1,1.4915 -1,2.5591 0,1.0675 -0.45,1.9409 -1,1.9409 -0.55,0 -1,0.8159 -1,1.813 0,0.9971 -1.3953,3.1346 -3.1006,4.75 -1.7054,1.6154 -3.4943,3.9495 -3.9753,5.187 -0.481,1.2375 -1.4725,2.25 -2.2032,2.25 -0.7307,0 -2.8551,1.575 -4.7209,3.5 -1.8658,1.925 -4.2041,3.5 -5.1962,3.5 -0.9921,0 -1.8038,0.45 -1.8038,1 0,0.55 -0.8734,1 -1.941,1 -1.0675,0 -2.2191,0.45 -2.559,1 -0.3399,0.55 -1.8933,1 -3.452,1 -1.5966,0 -3.0853,0.655 -3.4096,1.5 -0.5067,1.3204 -13.3213,1.5 -106.9846,1.5 -93.3657,0 -106.5615,-0.1838 -107.6538,-1.5 z m 39,-145 0,-134.49996 -16.941,0 c -10.2153,0 -17.1863,0.39701 -17.559,1 -0.3399,0.55 -1.9415,1 -3.559,1 -1.6176,0 -2.941,0.45 -2.941,1 0,0.55 -0.8449,1 -1.8776,1 -1.0326,0 -2.4377,0.675 -3.1224,1.5 -0.6847,0.825 -1.7677,1.5 -2.4066,1.5 -1.3532,0 -10.5206,9.45605 -12.3477,12.73643 -0.6852,1.23004 -1.2457,2.91754 -1.2457,3.75 0,0.83246 -0.45,1.51357 -1,1.51357 -0.55,0 -1,1.32344 -1,2.94098 0,1.61754 -0.45,3.2191 -1,3.55902 -1.3814,0.85376 -1.3814,205.14626 0,205.99996 0.55,0.34 1,1.9415 1,3.5591 0,1.6175 0.45,2.9409 1,2.9409 0.55,0 1,0.6812 1,1.5136 0,0.8325 0.5605,2.52 1.2457,3.75 1.8271,3.2804 10.9945,12.7364 12.3477,12.7364 0.6389,0 1.7219,0.675 2.4066,1.5 0.6847,0.825 2.0898,1.5 3.1224,1.5 1.0327,0 1.8776,0.45 1.8776,1 0,0.55 1.3234,1 2.941,1 1.6175,0 3.2191,0.45 3.559,1 0.3727,0.603 7.3437,1 17.559,1 l 16.941,0 0,-134.5 z m 129,-0.01 0,-134.5077 -60.75,0.25774 -60.75,0.25775 -0.2571,133.00001 c -0.1414,73.15 -0.043,133.5625 0.2186,134.25 0.3734,0.981 13.5024,1.25 61.0071,1.25 l 60.5314,2e-4 0,-134.5077 z m 39.5,133.508 c 0.3399,-0.55 2.313,-1 4.3847,-1 2.7248,0 4.4163,-0.6915 6.1153,-2.5 1.2917,-1.375 2.959,-2.5 3.705,-2.5 1.7801,0 13.295,-11.4988 13.295,-13.2764 0,-0.7562 1.125,-2.4318 2.5,-3.7236 1.8085,-1.699 2.5,-3.3904 2.5,-6.1153 0,-2.0716 0.45,-4.0447 1,-4.3847 1.3812,-0.8536 1.3812,-199.14634 0,-199.99996 -0.55,-0.33992 -1,-1.64734 -1,-2.90538 0,-2.47486 -2.5448,-8.19528 -4.0633,-9.13376 -0.5152,-0.31839 -0.9367,-1.22734 -0.9367,-2.01988 0,-1.8766 -11.5644,-13.44098 -13.441,-13.44098 -0.7925,0 -1.7015,-0.4215 -2.0199,-0.93668 -0.9384,-1.51848 -6.6589,-4.06332 -9.1337,-4.06332 -1.2581,0 -2.5655,-0.45 -2.9054,-1 -0.3727,-0.60299 -7.3437,-1 -17.559,-1 l -16.941,0 0,134.49996 0,134.5 16.941,0 c 10.2153,0 17.1863,-0.397 17.559,-1 z"
       id="path4147"
       inkscape:connector-curvature="0"
       inkscape:export-filename="C:\Users\Gonzalo\Documents\GitHub\gonjav88.github.io\img\assets\FV-basic.png"
       inkscape:export-xdpi="160"
       inkscape:export-ydpi="160" />
  </g>
</svg>
