<?xml version="1.0" encoding="UTF-8" standalone="no"?>
<!-- Created with Inkscape (http://www.inkscape.org/) -->

<svg
   xmlns:dc="http://purl.org/dc/elements/1.1/"
   xmlns:cc="http://creativecommons.org/ns#"
   xmlns:rdf="http://www.w3.org/1999/02/22-rdf-syntax-ns#"
   xmlns:svg="http://www.w3.org/2000/svg"
   xmlns="http://www.w3.org/2000/svg"
   xmlns:sodipodi="http://sodipodi.sourceforge.net/DTD/sodipodi-0.dtd"
   xmlns:inkscape="http://www.inkscape.org/namespaces/inkscape"
   width="210mm"
   height="297mm"
   viewBox="0 0 210 297"
   version="1.1"
   id="svg8"
   inkscape:version="0.92.1 r"
   sodipodi:docname="logo.svg">
  <defs
     id="defs2">
    <meshgradient
       inkscape:collect="always"
       id="meshgradient4498"
       gradientUnits="userSpaceOnUse"
       x="49.835907"
       y="11.608612">
      <meshrow
         id="meshrow4500">
        <meshpatch
           id="meshpatch4502">
          <stop
             path="c 35.7742,0  71.5483,0  107.322,0"
             style="stop-color:#ffffff;stop-opacity:1"
             id="stop4504" />
          <stop
             path="c 0,58.8267  0,117.653  0,176.48"
             style="stop-color:#010300;stop-opacity:1"
             id="stop4506" />
          <stop
             path="c -35.7742,0  -71.5483,0  -107.322,0"
             style="stop-color:#ffffff;stop-opacity:1"
             id="stop4508" />
          <stop
             path="c 0,-58.8267  0,-117.653  0,-176.48"
             style="stop-color:#010300;stop-opacity:1"
             id="stop4510" />
        </meshpatch>
      </meshrow>
    </meshgradient>
  </defs>
  <sodipodi:namedview
     id="base"
     pagecolor="#ffffff"
     bordercolor="#666666"
     borderopacity="1.0"
     inkscape:pageopacity="0.0"
     inkscape:pageshadow="2"
     inkscape:zoom="0.35"
     inkscape:cx="-43.012376"
     inkscape:cy="490.82147"
     inkscape:document-units="mm"
     inkscape:current-layer="layer1"
     showgrid="false"
     inkscape:window-width="1366"
     inkscape:window-height="744"
     inkscape:window-x="0"
     inkscape:window-y="0"
     inkscape:window-maximized="1" />
  <metadata
     id="metadata5">
    <rdf:RDF>
      <cc:Work
         rdf:about="">
        <dc:format>image/svg+xml</dc:format>
        <dc:type
           rdf:resource="http://purl.org/dc/dcmitype/StillImage" />
        <dc:title></dc:title>
      </cc:Work>
    </rdf:RDF>
  </metadata>
  <g
     inkscape:label="Capa 1"
     inkscape:groupmode="layer"
     id="layer1">
    <path
       style="fill:url(#meshgradient4498);stroke-width:0.37108165;fill-opacity:1"
       d="m 99.806411,187.555 c -0.5385,-2.27586 -0.47018,-174.949316 0.0696,-175.862423 0.867599,-1.467744 1.063119,15.809188 1.032739,91.255803 -0.0297,73.78327 -0.21934,88.33843 -1.102329,84.60662 z M 61.790399,152.32786 c -3.58115,-0.99647 -7.609197,-3.9547 -9.531692,-7.00011 -1.849172,-2.92929 -2.050377,-4.24277 -2.242661,-14.64102 l -0.180139,-9.74089 h 5.944441 5.944427 l 0.129592,12.89508 c 0.112903,11.23781 0.210111,13.04301 0.756011,14.04601 0.937454,1.72235 2.189828,2.37435 4.560707,2.37435 1.295207,0 2.415689,-0.22842 3.000678,-0.61172 1.947867,-1.2763 2.008932,-1.72464 2.008932,-14.75146 0,-7.4294 -0.158554,-12.8154 -0.412928,-14.02677 -0.719363,-3.42583 -2.601256,-6.8574 -10.337758,-18.85066 C 53.690322,90.022481 51.440453,85.914061 50.659715,82.353341 50.051305,79.578591 49.737927,65.033586 50.214193,61.67559 c 1.200958,-8.467381 7.778171,-13.83285 16.956892,-13.83285 7.218681,0 12.975255,3.375233 15.711447,9.212059 0.982867,2.096617 0.98772,2.150726 1.096779,12.217912 l 0.109537,10.11198 H 78.134743 72.180667 V 66.546856 c 0,-11.218074 -0.07658,-12.967471 -0.606924,-13.865262 -0.864747,-1.463888 -2.391804,-2.241273 -4.402686,-2.241273 -2.057347,0 -3.53122,0.77688 -4.495448,2.369547 -0.644988,1.065349 -0.6997,2.040755 -0.6997,12.473716 0,12.50272 0.295902,14.872927 2.368032,18.968377 0.579967,1.14629 4.493288,7.44066 8.696242,13.9875 8.565711,13.342579 9.201316,14.476339 10.262514,18.305819 0.67552,2.4377 0.752168,3.79943 0.748563,13.29906 -0.0042,11.35796 -0.165833,12.62887 -1.967824,15.48341 -1.1518,1.82457 -4.381424,4.75149 -6.358113,5.7622 -0.827048,0.42287 -2.338649,0.9919 -3.359117,1.26449 -2.294877,0.61301 -8.331758,0.59783 -10.575835,-0.0265 z m 63.454971,-1.50995 v -1.29878 h 1.85541 1.85542 V 100.16526 50.811398 h -2.78312 -2.78311 v 14.286647 14.286646 h -5.38069 -5.38068 V 63.799262 48.213831 h 22.2649 22.2649 v 15.585431 15.585429 h -5.56623 -5.56622 V 65.098045 50.811398 h -2.59757 -2.59758 v 49.353862 49.35387 h 1.85541 1.85542 v 1.29878 1.29879 h -9.64813 -9.64813 z"
       id="path4496"
       inkscape:connector-curvature="0" />
  </g>
</svg>
